<svg xmlns:mydata="http://www.w3.org/2000/svg" mydata:contrastcolor="ffffff" mydata:template="Default" mydata:presentation="2.5" mydata:layouttype="undefined" mydata:specialfontid="undefined" mydata:id1="639" mydata:id2="004" mydata:companyname="Agni Matrimony" mydata:companytagline="" version="1.1" xmlns="http://www.w3.org/2000/svg" xmlns:xlink="http://www.w3.org/1999/xlink" viewBox="0 0 550 470" class="svg-primary-tile"><g fill="#1d428a" fill-rule="none" stroke="none" stroke-width="1" stroke-linecap="butt" stroke-linejoin="miter" stroke-miterlimit="10" stroke-dasharray="" stroke-dashoffset="0" font-family="none" font-weight="none" font-size="none" text-anchor="none" style="mix-blend-mode: normal"><g data-paper-data="{&quot;isGlobalGroup&quot;:true,&quot;bounds&quot;:{&quot;x&quot;:180.73871127174556,&quot;y&quot;:114.99999999999997,&quot;width&quot;:188.52257745650888,&quot;height&quot;:240.00000000000003}}"><g data-paper-data="{&quot;stacked&quot;:true,&quot;isPrimaryText&quot;:true}" fill-rule="nonzero"><path d="M211.436,306.02632l4.08574,10.05164c0.68698,1.66322 1.0124,3.00103 1.0124,3.97727c0,3.90496 -3.6157,4.70041 -6.7252,4.98967v0.83161h23.75515v-0.83161c-3.83264,-0.43388 -5.67665,-0.97624 -7.62913,-4.375c-0.68698,-1.22934 -1.62706,-3.29029 -2.82025,-6.14669l-15.72829,-38.001h-2.06095l-13.23346,34.09605c-1.19318,3.1095 -2.16942,5.42355 -2.89256,6.9783c-1.73554,3.6157 -4.08574,7.19524 -8.46074,7.44834v0.83161h16.19833v-0.83161c-3.18182,-0.2531 -5.82128,-2.06095 -5.82128,-5.53202c0,-1.51859 0.54235,-3.6157 1.62706,-6.25516l0.90392,-2.24173l1.88016,-4.98967zM203.26452,285.81456l7.59297,18.72932h-14.75205z" data-paper-data="{&quot;glyphName&quot;:&quot;A&quot;,&quot;glyphIndex&quot;:0,&quot;firstGlyphOfWord&quot;:true,&quot;word&quot;:1,&quot;line&quot;:1,&quot;firstGlyphOfFirstLine&quot;:true}"></path><path d="M262.48968,275.25672c-16.19833,0 -26.21382,11.93181 -26.21382,27.33469c0,15.58367 9.8347,24.51444 24.73139,24.51444c5.56818,0 11.46177,-1.30165 16.08986,-4.48347c0.83161,-0.57851 1.48244,-0.83161 2.02479,-0.83161c0.43388,0 0.90392,0.18078 1.80785,0.5062v-14.969h-16.01755v0.83161c4.91735,0 8.31611,1.26549 8.31611,6.76136c0,6.50826 -4.98967,11.02788 -11.28098,11.02788c-8.17148,0 -13.48656,-7.08677 -15.61982,-14.28201c-0.86777,-2.92872 -1.30165,-6.03822 -1.30165,-9.3285c0,-6.90599 1.80785,-13.08883 5.42355,-18.44007c3.32644,-4.91735 7.12293,-7.44834 13.16115,-7.44834c9.18388,0 13.4504,8.17148 15.83676,15.87292l0.83161,-0.07231l-0.43388,-15.72829h-0.94008c-0.5062,1.55475 -1.22934,2.3502 -2.20558,2.3502c-0.43388,0 -0.90392,-0.10847 -1.44628,-0.32541l-2.13326,-0.97624c-3.57954,-1.59091 -6.68904,-2.31405 -10.63016,-2.31405z" data-paper-data="{&quot;glyphName&quot;:&quot;G&quot;,&quot;glyphIndex&quot;:1,&quot;word&quot;:1,&quot;line&quot;:1}"></path><path d="M333.35739,325.87651h1.62706v-38.03716c0,-2.42252 0.14463,-4.26653 0.43388,-5.45971c0.79545,-3.47107 3.68801,-5.02582 7.15909,-5.02582v-0.83161h-16.66838v0.83161c7.19524,0.36157 7.59297,4.73657 7.59297,10.52169v26.10535l-29.35948,-37.45865h-13.92044v0.83161c7.19524,0.36157 7.59297,4.70041 7.59297,10.48553v26.68386c0,5.78512 -0.39773,10.16012 -7.59297,10.52169v0.83161h16.66838v-0.83161c-7.19524,-0.36157 -7.59297,-4.73657 -7.59297,-10.52169v-31.45659z" data-paper-data="{&quot;glyphName&quot;:&quot;N&quot;,&quot;glyphIndex&quot;:2,&quot;word&quot;:1,&quot;line&quot;:1}"></path><path d="M369.26129,276.52221h-23.10432v0.83161c7.2314,0.39773 7.59297,4.73657 7.59297,10.52169v26.64771c0,5.78512 -0.36157,10.12396 -7.59297,10.52169v0.83161h23.10432v-0.83161c-7.05061,-0.39773 -7.59297,-4.48347 -7.59297,-10.52169v-26.64771c0,-5.74896 0.39773,-10.16012 7.59297,-10.52169z" data-paper-data="{&quot;glyphName&quot;:&quot;I&quot;,&quot;glyphIndex&quot;:3,&quot;lastGlyphOfWord&quot;:true,&quot;word&quot;:1,&quot;line&quot;:1,&quot;lastGlyphOfFirstLine&quot;:true}"></path><path d="M191.61368,354.52838l7.14363,-16.75633v12.40079c0,2.21938 -0.15258,3.89779 -2.92681,4.0365v0.31904h8.86365v-0.31904c-1.30389,-0.06936 -2.42745,-0.58259 -2.74648,-1.91422c-0.11097,-0.45775 -0.16645,-1.16518 -0.16645,-2.12228v-10.22303c0,-2.21938 0.13871,-3.88392 2.91294,-4.0365v-0.31904h-5.70104l-6.22814,14.82824l-6.0062,-14.82824h-6.02007v0.31904c2.76036,0.15258 2.91294,1.80325 2.91294,4.0365v10.22303c0,2.21938 -0.15258,3.89779 -2.91294,4.0365v0.31904h6.39459v-0.31904c-2.76036,-0.13871 -2.91294,-1.81712 -2.91294,-4.0365v-12.15111l7.10202,16.50665z" data-paper-data="{&quot;glyphName&quot;:&quot;M&quot;,&quot;glyphIndex&quot;:4,&quot;firstGlyphOfWord&quot;:true,&quot;word&quot;:2,&quot;line&quot;:2,&quot;firstGlyphOfSecondLine&quot;:true}"></path><path d="M216.88689,346.91313l1.56744,3.85618c0.26355,0.63807 0.38839,1.1513 0.38839,1.52582c0,1.49808 -1.38711,1.80325 -2.58003,1.91422v0.31904h9.11333v-0.31904c-1.47034,-0.16645 -2.17777,-0.37452 -2.92681,-1.67841c-0.26355,-0.47162 -0.6242,-1.26227 -1.08195,-2.35809l-6.03394,-14.57856h-0.79065l-5.07683,13.08048c-0.45775,1.19292 -0.83227,2.08067 -1.10969,2.67713c-0.66581,1.38711 -1.56744,2.76036 -3.24585,2.85745v0.31904h6.21427v-0.31904c-1.22066,-0.0971 -2.23325,-0.79065 -2.23325,-2.12228c0,-0.58259 0.20807,-1.38711 0.6242,-2.39971l0.34678,-0.86001l0.7213,-1.91422zM213.75201,339.15917l2.91294,7.18525h-5.65942z" data-paper-data="{&quot;glyphName&quot;:&quot;A&quot;,&quot;glyphIndex&quot;:5,&quot;word&quot;:2,&quot;line&quot;:2}"></path><path d="M233.25482,350.17285c0,2.23325 -0.15258,3.89779 -2.92681,4.0365v0.31904h8.86365v-0.31904c-2.76036,-0.13871 -2.91294,-1.81712 -2.91294,-4.0365v-14.14856c2.05293,0 3.5094,0.12484 4.36941,0.37452c2.27487,0.63807 3.06552,2.12228 3.49553,4.34166l0.31904,-0.02774l-0.24968,-5.11845h-18.76764l-0.24968,5.11845l0.31904,0.02774c0.74904,-3.77295 2.39971,-4.48038 5.86749,-4.6607c0.66581,-0.04161 1.29002,-0.05548 1.8726,-0.05548z" data-paper-data="{&quot;glyphName&quot;:&quot;T&quot;,&quot;glyphIndex&quot;:6,&quot;word&quot;:2,&quot;line&quot;:2}"></path><path d="M245.26723,335.9688c0.84614,0.04161 1.56744,0.18032 2.17777,0.80453c0.29129,0.30516 0.5271,0.67969 0.63807,1.12356c0.0971,0.45775 0.18032,1.16518 0.18032,2.12228v10.2369c0,2.42745 -0.38839,3.92553 -2.99616,4.05037v0.20807h5.99233v-9.23818c0.30516,0 0.87388,0.1942 1.13743,0.33291c0.70743,0.37452 1.52582,1.40098 1.83099,1.77551c2.52455,2.98229 4.84103,4.81328 8.48913,6.11717c2.20551,0.79065 4.78554,1.33163 7.12976,1.33163c4.70231,0 7.19912,-2.15003 10.09819,-5.382c0.16645,-0.1942 0.31904,-0.43001 0.5271,-0.61033c-1.69228,1.49808 -5.54845,4.28618 -10.48658,4.28618c-4.09198,0 -8.91914,-1.91422 -13.89888,-8.073c0.97098,-0.20807 1.94196,-0.48549 2.73261,-1.10969c1.09582,-0.86001 1.63679,-2.02519 1.63679,-3.46778c0,-1.9697 -1.08195,-3.49553 -2.8852,-4.2307c-0.8184,-0.31904 -1.94196,-0.5271 -3.38456,-0.58259c-0.34678,-0.01387 -1.08195,-0.02774 -2.20551,-0.02774h-6.71363zM251.8144,336.07977c2.21938,0 3.89779,0.23581 4.8549,2.44132c0.27742,0.63807 0.43001,1.33163 0.43001,2.0668c0,1.81712 -1.02646,3.71746 -2.85745,4.18908c-0.49936,0.13871 -1.31776,0.13871 -2.46906,0.13871h-0.51323v-8.83591zM266.89232,335.9688c0.86001,0.04161 1.56744,0.18032 2.17777,0.80453c0.29129,0.30516 0.49936,0.67969 0.59646,1.12356c0.0971,0.45775 0.15258,1.16518 0.15258,2.12228v3.19036c0,2.23325 -0.13871,3.91166 -2.92681,4.05037v0.31904h8.8914v-0.31904c-2.76036,-0.16645 -2.92681,-1.81712 -2.92681,-4.05037v-3.19036c0,-2.21938 0.15258,-3.89779 2.92681,-4.05037v-0.31904h-8.8914z" data-paper-data="{&quot;glyphName&quot;:&quot;special;R_I&quot;,&quot;glyphIndex&quot;:7,&quot;word&quot;:2,&quot;line&quot;:2}"></path><path d="M291.86036,354.52838l7.14363,-16.75633v12.40079c0,2.21938 -0.15258,3.89779 -2.92681,4.0365v0.31904h8.86365v-0.31904c-1.30389,-0.06936 -2.42745,-0.58259 -2.74648,-1.91422c-0.11097,-0.45775 -0.16645,-1.16518 -0.16645,-2.12228v-10.22303c0,-2.21938 0.13871,-3.88392 2.91294,-4.0365v-0.31904h-5.70104l-6.22814,14.82824l-6.0062,-14.82824h-6.02007v0.31904c2.76036,0.15258 2.91294,1.80325 2.91294,4.0365v10.22303c0,2.21938 -0.15258,3.89779 -2.91294,4.0365v0.31904h6.39459v-0.31904c-2.76036,-0.13871 -2.91294,-1.81712 -2.91294,-4.0365v-12.15111l7.10202,16.50665z" data-paper-data="{&quot;glyphName&quot;:&quot;M&quot;,&quot;glyphIndex&quot;:8,&quot;word&quot;:2,&quot;line&quot;:2}"></path><path d="M317.28615,335.12267c-2.23325,0 -4.50812,0.8184 -6.40846,2.27487c-2.55229,1.98357 -3.91166,4.68844 -3.91166,7.79558c0,5.52071 4.60522,9.80689 10.07044,9.80689c5.4791,0 10.32012,-4.42489 10.32012,-9.98722c0,-5.382 -4.77167,-9.89012 -10.07044,-9.89012zM321.69717,337.74431c1.45647,1.84486 2.30261,4.61909 2.30261,7.60138c0,2.70487 -0.73517,4.99361 -2.19164,6.83847c-1.33163,1.66454 -2.71874,2.35809 -4.6607,2.35809c-1.92809,0 -3.3152,-0.70743 -4.63296,-2.35809c-1.45647,-1.84486 -2.19164,-4.10586 -2.19164,-6.78298c0,-3.05165 0.83227,-5.82588 2.28874,-7.65687c1.22066,-1.5397 2.58003,-2.17777 4.53586,-2.17777c1.98357,0 3.37069,0.66581 4.54973,2.17777z" data-paper-data="{&quot;glyphName&quot;:&quot;O&quot;,&quot;glyphIndex&quot;:9,&quot;word&quot;:2,&quot;line&quot;:2}"></path><path d="M345.9023,354.52838h0.6242v-14.59243c0,-0.92937 0.05548,-1.63679 0.16645,-2.09454c0.30516,-1.33163 1.41486,-1.92809 2.74648,-1.92809v-0.31904h-6.39459v0.31904c2.76036,0.13871 2.91294,1.81712 2.91294,4.0365v10.01496l-11.26336,-14.37049h-5.34039v0.31904c2.76036,0.13871 2.91294,1.80325 2.91294,4.02263v10.2369c0,2.21938 -0.15258,3.89779 -2.91294,4.0365v0.31904h6.39459v-0.31904c-2.76036,-0.13871 -2.91294,-1.81712 -2.91294,-4.0365v-12.06789z" data-paper-data="{&quot;glyphName&quot;:&quot;N&quot;,&quot;glyphIndex&quot;:10,&quot;word&quot;:2,&quot;line&quot;:2}"></path><path d="M356.45823,337.32818c0,-0.58259 0.26355,-0.98485 0.77678,-1.20679c0.20807,-0.0971 0.70743,-0.16645 1.47034,-0.20807v-0.31904h-9.04398v0.31904c1.5397,0.06936 2.19164,0.55485 3.05165,1.84486l4.2307,6.36685c0.63807,0.97098 1.31776,2.15003 1.31776,3.34294l-0.01387,2.70487c0,2.23325 -0.12484,3.88392 -2.91294,4.0365v0.31904h8.86365v-0.31904c-1.29002,0 -2.46906,-0.58259 -2.76036,-1.91422c-0.0971,-0.43001 -0.15258,-1.13743 -0.15258,-2.12228v-3.39843c0,-1.29002 0.11097,-1.5397 0.8184,-2.62164l3.16262,-4.82715c0.76291,-1.17905 1.47034,-2.05293 2.09454,-2.64939c0.54097,-0.48549 0.94324,-0.65194 1.90035,-0.76291v-0.31904h-6.38072v0.31904c1.37324,0 2.1639,0.67969 2.1639,1.85873c0,0.51323 -0.16645,1.04034 -0.51323,1.58131l-3.57875,5.59007l-3.75908,-5.88136c-0.51323,-0.8184 -0.73517,-1.30389 -0.73517,-1.73389z" data-paper-data="{&quot;glyphName&quot;:&quot;Y&quot;,&quot;glyphIndex&quot;:11,&quot;lastGlyphOfWord&quot;:true,&quot;word&quot;:2,&quot;line&quot;:2,&quot;lastGlyphOfSecondLine&quot;:true}"></path></g><g data-paper-data="{&quot;isIcon&quot;:&quot;true&quot;,&quot;iconType&quot;:&quot;icon&quot;,&quot;rawIconId&quot;:&quot;818&quot;,&quot;selectedEffects&quot;:{&quot;container&quot;:&quot;&quot;,&quot;transformation&quot;:&quot;&quot;,&quot;pattern&quot;:&quot;&quot;},&quot;isDetailed&quot;:false,&quot;fillRule&quot;:&quot;evenodd&quot;,&quot;bounds&quot;:{&quot;x&quot;:230.02980079296606,&quot;y&quot;:114.99999999999997,&quot;width&quot;:89.94039841406789,&quot;height&quot;:132.59073870351696},&quot;iconStyle&quot;:&quot;standalone&quot;,&quot;suitableAsStandaloneIcon&quot;:true}" fill-rule="evenodd"><path d="M244.98647,170.00065c24.67397,-24.47796 28.27362,-45.03435 19.96551,-55.00065c0,0 62.80516,25.80995 25.86288,85.67357c-1.21252,1.9492 -2.77328,3.96606 -4.44592,6.12757c-7.05038,9.11088 -16.08816,20.79017 -9.41476,40.78959c-0.00143,0 -79.02651,-22.12588 -31.96771,-77.59008zM302.45795,231.72276c-16.75243,11.47956 -19.13427,13.96269 -19.36805,14.49964c-0.11675,-0.41705 -0.26254,-0.8733 -0.42163,-1.37147c-1.78166,-5.57961 -5.24197,-16.41579 11.45867,-36.19258c9.81608,-11.59444 16.53468,-37.06388 13.26265,-43.14582c0,0 31.35251,41.41037 -4.93165,66.21024zM283.13054,246.37034c-0.01316,-0.04879 -0.02661,-0.098 -0.04063,-0.14794c-0.06638,0.15251 0.04063,0.14794 0.04063,0.14794z" data-paper-data="{&quot;isPathIcon&quot;:true}"></path></g></g></g></svg>